<svg id="logosandtypes_com" xmlns="http://www.w3.org/2000/svg" viewBox="0 0 150 150"><style>.st1{fill:#000}</style><path d="M0 0h150v150H0V0z" fill="none" id="Layer_3"/><g id="daedalus"><path class="st1" d="M72.4 17.2H33.2c-1.4 0-2.6 1.2-2.6 2.6v20.9c0 1.4 1.2 2.6 2.6 2.6H41v62.6h-7.8c-1.4 0-2.6 1.2-2.6 2.6 0 1.4 1.2 2.6 2.6 2.6h10.4c1.4 0 2.6-1.2 2.6-2.6V40.7c0-1.4-1.2-2.6-2.6-2.6h-7.8V22.4h36.5c28.8 0 52.2 23.4 52.2 52.2s-23.4 52.2-52.2 52.2H33.2c-1.4 0-2.6 1.2-2.6 2.6 0 1.4 1.2 2.6 2.6 2.6h39.1c31.6 0 57.4-25.8 57.4-57.4S104 17.2 72.4 17.2z"/><path class="st1" d="M54.1 74.6c-1.4 0-2.6 1.2-2.6 2.6v39.1h-7.8c-1.4 0-2.6 1.2-2.6 2.6s1.2 2.6 2.6 2.6h28.7c24.9 0 45.4-19.5 46.9-44.1v-.1c.1-.9.1-1.9.1-2.8 0-25.9-21.1-47-47-47H43.7c-1.4 0-2.6 1.2-2.6 2.6s1.2 2.6 2.6 2.6h7.8v33.9c0 1.4 1.2 2.6 2.6 2.6h10.4c1.4 0 2.6-1.2 2.6-2.6V43.3h5.2c13.5 0 25.2 8.4 29.5 20.9h-5.6c-3.7-8.5-11.8-14.5-21-15.5-.7-.1-1.5.1-2 .7-.5.5-.9 1.2-.9 2v46.7c0 .7.3 1.4.9 2 .5.4 1.1.7 1.7.7h.3c5.8-.7 11.4-3.3 15.5-7.5 4.2-4.2 6.8-9.7 7.5-15.5.1-1.4-.9-2.7-2.3-2.9-1.4-.1-2.7.9-2.9 2.3-.9 8.6-7.3 15.8-15.5 17.9V54.4c6.6 1.7 12.1 6.7 14.5 13.3.4 1.1 1.3 1.7 2.5 1.7h10.9c.8 0 1.6-.4 2-1 .5-.6.7-1.4.5-2.2-1.8-7.9-6.4-15-12.7-20.1-6.5-5.2-14.6-8-22.8-8h-7.8c-1.4 0-2.6 1.2-2.6 2.6v23.4h-5.2V32.9h15.7c23 0 41.7 18.7 41.7 41.7h-7.9c-1.4 0-2.5 1.1-2.6 2.4-1.2 16.2-14.9 28.9-31.2 28.9h-5.2V77.2c0-1.4-1.2-2.6-2.6-2.6-1.4 0-2.6 1.2-2.6 2.6v31.3c0 .7.3 1.3.8 1.8s1.2.8 1.8.8h7.8c9.3 0 18.1-3.5 24.9-9.8 6.2-5.7 10.1-13.3 11.3-21.5h5.3c-2.6 20.5-20.2 36.5-41.4 36.5H56.7V77.2c0-1.4-1.2-2.6-2.6-2.6z"/></g></svg>
